<svg xmlns="http://www.w3.org/2000/svg" viewBox="0 0 598 304" width="598" height="304" role="img" font-family="system-ui, sans-serif"><title>Tornado for total cost of ownership</title><rect width="598" height="304" fill="#ffffff"/><text x="16" y="28" font-size="11" fill="#263238">total cost of ownership (USD) — point estimate $2,002,083</text><line x1="314.8" y1="40" x2="314.8" y2="270" stroke="#455a64" stroke-width="1" stroke-dasharray="3 2"/><text x="177.97500000000002" y="290" font-size="9" text-anchor="end" fill="#90a4ae">and 10 that do not move it at all</text><rect x="186.0" y="50.0" width="300.0" height="16.0" rx="2" fill="#dbe7f3" stroke="#4a7ba7" stroke-width="1"/><text x="177.97500000000002" y="62.0" font-size="9.5" text-anchor="end" fill="#263238">engineers, full-time equivalent</text><text x="493.975" y="62.0" font-size="9" fill="#546e7a">$628,081</text><rect x="232.2" y="74.0" width="247.6" height="16.0" rx="2" fill="#dbe7f3" stroke="#4a7ba7" stroke-width="1"/><text x="177.97500000000002" y="86.0" font-size="9.5" text-anchor="end" fill="#263238">licence per core</text><text x="493.975" y="86.0" font-size="9" fill="#546e7a">$518,400</text><rect x="220.7" y="98.0" width="216.7" height="16.0" rx="2" fill="#dbe7f3" stroke="#4a7ba7" stroke-width="1"/><text x="177.97500000000002" y="110.0" font-size="9.5" text-anchor="end" fill="#263238">fully loaded salary</text><text x="493.975" y="110.0" font-size="9" fill="#546e7a">$453,590</text><rect x="231.2" y="122.0" width="205.0" height="16.0" rx="2" fill="#dbe7f3" stroke="#4a7ba7" stroke-width="1"/><text x="177.97500000000002" y="134.0" font-size="9.5" text-anchor="end" fill="#263238">host price</text><text x="493.975" y="134.0" font-size="9" fill="#546e7a">$429,235</text><rect x="287.6" y="146.0" width="61.6" height="16.0" rx="2" fill="#dbe7f3" stroke="#4a7ba7" stroke-width="1"/><text x="177.97500000000002" y="158.0" font-size="9.5" text-anchor="end" fill="#263238">support rate</text><text x="493.975" y="158.0" font-size="9" fill="#546e7a">$129,049</text><rect x="290.8" y="170.0" width="61.6" height="16.0" rx="2" fill="#dbe7f3" stroke="#4a7ba7" stroke-width="1"/><text x="177.97500000000002" y="182.0" font-size="9.5" text-anchor="end" fill="#263238">electricity price</text><text x="493.975" y="182.0" font-size="9" fill="#546e7a">$128,918</text><rect x="299.2" y="194.0" width="36.8" height="16.0" rx="2" fill="#dbe7f3" stroke="#4a7ba7" stroke-width="1"/><text x="177.97500000000002" y="206.0" font-size="9.5" text-anchor="end" fill="#263238">network price per host</text><text x="493.975" y="206.0" font-size="9" fill="#546e7a">$77,059</text><rect x="304.1" y="218.0" width="23.5" height="16.0" rx="2" fill="#dbe7f3" stroke="#4a7ba7" stroke-width="1"/><text x="177.97500000000002" y="230.0" font-size="9.5" text-anchor="end" fill="#263238">host power</text><text x="493.975" y="230.0" font-size="9" fill="#546e7a">$49,271</text><rect x="308.0" y="242.0" width="15.7" height="16.0" rx="2" fill="#dbe7f3" stroke="#4a7ba7" stroke-width="1"/><text x="177.97500000000002" y="254.0" font-size="9.5" text-anchor="end" fill="#263238">PUE</text><text x="493.975" y="254.0" font-size="9" fill="#546e7a">$32,940</text></svg>
