<svg xmlns="http://www.w3.org/2000/svg" viewBox="0 0 1160 388" width="1160" height="388" role="img" font-family="system-ui, sans-serif"><title>A request-serving tier — queueing, and what more machines buy — dependency graph, showing only what feeds requests in the system</title><rect width="1160" height="388" fill="#ffffff"/><rect x="16.0" y="24" width="13" height="10" rx="2" fill="#dbe7f3" stroke="#4a7ba7"/><text x="33.0" y="33" font-size="9.5" fill="#455a64">input</text><rect x="68.0" y="24" width="13" height="10" rx="2" fill="#eceff1" stroke="#90a4ae"/><text x="85.0" y="33" font-size="9.5" fill="#455a64">derived</text><rect x="131.2" y="24" width="13" height="10" rx="2" fill="#fde8c8" stroke="#c8791a"/><text x="148.2" y="33" font-size="9.5" fill="#455a64">measured</text><rect x="200.0" y="24" width="13" height="10" rx="2" fill="#f8d3d0" stroke="#b3413a"/><text x="217.0" y="33" font-size="9.5" fill="#455a64">ceiling</text><path d="M170.0,250.0 C281.0,250.0 281.0,204.0 392.0,204.0" fill="none" stroke="#e4e7e9" stroke-width="0.7"/><path d="M170.0,296.0 C281.0,296.0 281.0,204.0 392.0,204.0" fill="none" stroke="#e4e7e9" stroke-width="0.7"/><path d="M358.0,112.0 C375.0,112.0 375.0,204.0 392.0,204.0" fill="none" stroke="#e4e7e9" stroke-width="0.7"/><path d="M358.0,158.0 C375.0,158.0 375.0,204.0 392.0,204.0" fill="none" stroke="#e4e7e9" stroke-width="0.7"/><path d="M170.0,66.0 C187.0,66.0 187.0,66.0 204.0,66.0" fill="none" stroke="#607d8b" stroke-width="1.1"/><path d="M170.0,112.0 C187.0,112.0 187.0,66.0 204.0,66.0" fill="none" stroke="#607d8b" stroke-width="1.1"/><path d="M170.0,66.0 C563.0,66.0 563.0,66.0 956.0,66.0" fill="none" stroke="#607d8b" stroke-width="1.1"/><path d="M922.0,66.0 C939.0,66.0 939.0,66.0 956.0,66.0" fill="none" stroke="#607d8b" stroke-width="1.1"/><path d="M734.0,204.0 C751.0,204.0 751.0,158.0 768.0,158.0" fill="none" stroke="#e4e7e9" stroke-width="0.7"/><path d="M546.0,158.0 C563.0,158.0 563.0,66.0 580.0,66.0" fill="none" stroke="#607d8b" stroke-width="1.1"/><path d="M546.0,66.0 C563.0,66.0 563.0,66.0 580.0,66.0" fill="none" stroke="#607d8b" stroke-width="1.1"/><path d="M358.0,158.0 C375.0,158.0 375.0,250.0 392.0,250.0" fill="none" stroke="#e4e7e9" stroke-width="0.7"/><path d="M170.0,204.0 C281.0,204.0 281.0,250.0 392.0,250.0" fill="none" stroke="#e4e7e9" stroke-width="0.7"/><path d="M358.0,204.0 C375.0,204.0 375.0,250.0 392.0,250.0" fill="none" stroke="#e4e7e9" stroke-width="0.7"/><path d="M170.0,158.0 C187.0,158.0 187.0,112.0 204.0,112.0" fill="none" stroke="#e4e7e9" stroke-width="0.7"/><path d="M170.0,342.0 C187.0,342.0 187.0,112.0 204.0,112.0" fill="none" stroke="#e4e7e9" stroke-width="0.7"/><path d="M170.0,158.0 C187.0,158.0 187.0,158.0 204.0,158.0" fill="none" stroke="#e4e7e9" stroke-width="0.7"/><path d="M170.0,204.0 C187.0,204.0 187.0,158.0 204.0,158.0" fill="none" stroke="#e4e7e9" stroke-width="0.7"/><path d="M546.0,158.0 C657.0,158.0 657.0,112.0 768.0,112.0" fill="none" stroke="#e4e7e9" stroke-width="0.7"/><path d="M734.0,204.0 C751.0,204.0 751.0,112.0 768.0,112.0" fill="none" stroke="#e4e7e9" stroke-width="0.7"/><path d="M170.0,250.0 C187.0,250.0 187.0,204.0 204.0,204.0" fill="none" stroke="#e4e7e9" stroke-width="0.7"/><path d="M170.0,296.0 C187.0,296.0 187.0,204.0 204.0,204.0" fill="none" stroke="#e4e7e9" stroke-width="0.7"/><path d="M170.0,204.0 C187.0,204.0 187.0,204.0 204.0,204.0" fill="none" stroke="#e4e7e9" stroke-width="0.7"/><path d="M546.0,158.0 C563.0,158.0 563.0,158.0 580.0,158.0" fill="none" stroke="#e4e7e9" stroke-width="0.7"/><path d="M734.0,66.0 C751.0,66.0 751.0,66.0 768.0,66.0" fill="none" stroke="#607d8b" stroke-width="1.1"/><path d="M734.0,112.0 C751.0,112.0 751.0,66.0 768.0,66.0" fill="none" stroke="#607d8b" stroke-width="1.1"/><path d="M546.0,204.0 C563.0,204.0 563.0,250.0 580.0,250.0" fill="none" stroke="#e4e7e9" stroke-width="0.7"/><path d="M358.0,112.0 C469.0,112.0 469.0,250.0 580.0,250.0" fill="none" stroke="#e4e7e9" stroke-width="0.7"/><path d="M734.0,250.0 C751.0,250.0 751.0,204.0 768.0,204.0" fill="none" stroke="#e4e7e9" stroke-width="0.7"/><path d="M170.0,204.0 C375.0,204.0 375.0,112.0 580.0,112.0" fill="none" stroke="#607d8b" stroke-width="1.1"/><path d="M546.0,112.0 C563.0,112.0 563.0,112.0 580.0,112.0" fill="none" stroke="#607d8b" stroke-width="1.1"/><path d="M170.0,112.0 C375.0,112.0 375.0,112.0 580.0,112.0" fill="none" stroke="#607d8b" stroke-width="1.1"/><path d="M358.0,66.0 C375.0,66.0 375.0,158.0 392.0,158.0" fill="none" stroke="#607d8b" stroke-width="1.1"/><path d="M170.0,158.0 C281.0,158.0 281.0,158.0 392.0,158.0" fill="none" stroke="#607d8b" stroke-width="1.1"/><path d="M546.0,204.0 C563.0,204.0 563.0,204.0 580.0,204.0" fill="none" stroke="#e4e7e9" stroke-width="0.7"/><path d="M170.0,66.0 C375.0,66.0 375.0,204.0 580.0,204.0" fill="none" stroke="#e4e7e9" stroke-width="0.7"/><path d="M922.0,66.0 C939.0,66.0 939.0,112.0 956.0,112.0" fill="none" stroke="#e4e7e9" stroke-width="0.7"/><path d="M734.0,112.0 C845.0,112.0 845.0,112.0 956.0,112.0" fill="none" stroke="#e4e7e9" stroke-width="0.7"/><rect x="392" y="188" width="154" height="32" rx="3" fill="#fafafa" stroke="#e0e0e0" stroke-width="1.2"/><text x="398" y="203" font-size="9.5" fill="#bdbdbd">throughput the tier can</text><text x="398" y="214" font-size="9.5" fill="#bdbdbd">actually reach</text><rect x="16" y="50" width="154" height="32" rx="3" fill="#dbe7f3" stroke="#b3413a" stroke-width="1.2" stroke-dasharray="2 3"/><text x="22" y="69" font-size="9.5" fill="#263238">arrival rate</text><rect x="204" y="50" width="154" height="32" rx="3" fill="#eceff1" stroke="#90a4ae" stroke-width="1.2"/><text x="210" y="69" font-size="9.5" fill="#263238">nodes busy on average</text><rect x="956" y="50" width="154" height="32" rx="3" fill="#eceff1" stroke="#90a4ae" stroke-width="1.2"/><text x="962" y="69" font-size="9.5" fill="#263238">requests in the system</text><rect x="16" y="234" width="154" height="32" rx="3" fill="#fafafa" stroke="#e0e0e0" stroke-width="1.2"/><text x="22" y="253" font-size="9.5" fill="#bdbdbd">contention</text><rect x="768" y="142" width="154" height="32" rx="3" fill="#fafafa" stroke="#e0e0e0" stroke-width="1.2"/><text x="774" y="157" font-size="9.5" fill="#bdbdbd">limit on utilisation,</text><text x="774" y="168" font-size="9.5" fill="#bdbdbd">counting coordination</text><rect x="16" y="280" width="154" height="32" rx="3" fill="#fafafa" stroke="#e0e0e0" stroke-width="1.2"/><text x="22" y="299" font-size="9.5" fill="#bdbdbd">crosstalk</text><rect x="580" y="50" width="154" height="32" rx="3" fill="#eceff1" stroke="#90a4ae" stroke-width="1.2"/><text x="586" y="69" font-size="9.5" fill="#263238">effective utilisation</text><rect x="392" y="234" width="154" height="32" rx="3" fill="#fafafa" stroke="#e0e0e0" stroke-width="1.2"/><text x="398" y="249" font-size="9.5" fill="#bdbdbd">fraction of the peak</text><text x="398" y="260" font-size="9.5" fill="#bdbdbd">already built</text><rect x="204" y="96" width="154" height="32" rx="3" fill="#fafafa" stroke="#e0e0e0" stroke-width="1.2"/><text x="210" y="111" font-size="9.5" fill="#bdbdbd">throughput if scaling were</text><text x="210" y="122" font-size="9.5" fill="#bdbdbd">free</text><rect x="204" y="142" width="154" height="32" rx="3" fill="#fafafa" stroke="#e0e0e0" stroke-width="1.2"/><text x="210" y="161" font-size="9.5" fill="#bdbdbd">node count</text><rect x="16" y="142" width="154" height="32" rx="3" fill="#dbe7f3" stroke="#b3413a" stroke-width="1.2" stroke-dasharray="2 3"/><text x="22" y="161" font-size="9.5" fill="#263238">nodes in the tier</text><rect x="16" y="188" width="154" height="32" rx="3" fill="#dbe7f3" stroke="#2e7d32" stroke-width="1.2"/><text x="22" y="207" font-size="9.5" fill="#263238">one node</text><rect x="392" y="96" width="154" height="32" rx="3" fill="#dbe7f3" stroke="#2e7d32" stroke-width="1.2"/><text x="398" y="115" font-size="9.5" fill="#263238">one request</text><rect x="768" y="96" width="154" height="32" rx="3" fill="#fafafa" stroke="#e0e0e0" stroke-width="1.2"/><text x="774" y="111" font-size="9.5" fill="#bdbdbd">how much the queueing view</text><text x="774" y="122" font-size="9.5" fill="#bdbdbd">understated it</text><rect x="204" y="188" width="154" height="32" rx="3" fill="#fafafa" stroke="#e0e0e0" stroke-width="1.2"/><text x="210" y="203" font-size="9.5" fill="#bdbdbd">where adding nodes stops</text><text x="210" y="214" font-size="9.5" fill="#bdbdbd">helping</text><rect x="580" y="142" width="154" height="32" rx="3" fill="#fafafa" stroke="#e0e0e0" stroke-width="1.2"/><text x="586" y="161" font-size="9.5" fill="#bdbdbd">limit on utilisation</text><rect x="768" y="50" width="154" height="32" rx="3" fill="#eceff1" stroke="#90a4ae" stroke-width="1.2"/><text x="774" y="69" font-size="9.5" fill="#263238">residence time</text><rect x="580" y="234" width="154" height="32" rx="3" fill="#fafafa" stroke="#e0e0e0" stroke-width="1.2"/><text x="586" y="253" font-size="9.5" fill="#bdbdbd">scaling efficiency</text><rect x="768" y="188" width="154" height="32" rx="3" fill="#fafafa" stroke="#e0e0e0" stroke-width="1.2"/><text x="774" y="203" font-size="9.5" fill="#bdbdbd">limit on fraction of the</text><text x="774" y="214" font-size="9.5" fill="#bdbdbd">tier doing nothing useful</text><rect x="16" y="96" width="154" height="32" rx="3" fill="#dbe7f3" stroke="#b3413a" stroke-width="1.2" stroke-dasharray="2 3"/><text x="22" y="115" font-size="9.5" fill="#263238">service demand per request</text><rect x="580" y="96" width="154" height="32" rx="3" fill="#eceff1" stroke="#90a4ae" stroke-width="1.2"/><text x="586" y="115" font-size="9.5" fill="#263238">service time</text><rect x="16" y="326" width="154" height="32" rx="3" fill="#fafafa" stroke="#e0e0e0" stroke-width="1.2"/><text x="22" y="345" font-size="9.5" fill="#bdbdbd">single node throughput</text><rect x="392" y="142" width="154" height="32" rx="3" fill="#eceff1" stroke="#90a4ae" stroke-width="1.2"/><text x="398" y="161" font-size="9.5" fill="#263238">utilisation</text><rect x="392" y="50" width="154" height="32" rx="3" fill="#dbe7f3" stroke="#b3413a" stroke-width="1.2" stroke-dasharray="2 3"/><text x="398" y="65" font-size="9.5" fill="#263238">utilisation the model will</text><text x="398" y="76" font-size="9.5" fill="#263238">admit to</text><rect x="580" y="188" width="154" height="32" rx="3" fill="#fafafa" stroke="#e0e0e0" stroke-width="1.2"/><text x="586" y="203" font-size="9.5" fill="#bdbdbd">utilisation, counting</text><text x="586" y="214" font-size="9.5" fill="#bdbdbd">coordination</text><rect x="956" y="96" width="154" height="32" rx="3" fill="#fafafa" stroke="#e0e0e0" stroke-width="1.2"/><text x="962" y="115" font-size="9.5" fill="#bdbdbd">time spent queueing</text></svg>
