<svg xmlns="http://www.w3.org/2000/svg" viewBox="0 0 520 240" width="520" height="240" role="img" font-family="system-ui, sans-serif"><title>Distribution of cost per usable TB per month</title><rect width="520" height="240" fill="#ffffff"/><text x="16" y="20" font-size="11.5" fill="#263238">cost per usable TB per month — 100,000 samples</text><text x="16" y="34" font-size="9.5" fill="#546e7a">90% interval $2.37 to $15.87 · median $6.69</text><rect x="46.00" y="195.46" width="13.24" height="2.54" fill="#dde5ec"/><rect x="59.64" y="176.56" width="13.24" height="21.44" fill="#dde5ec"/><rect x="73.27" y="146.92" width="13.24" height="51.08" fill="#dde5ec"/><rect x="86.91" y="114.60" width="13.24" height="83.40" fill="#9fc0dd"/><rect x="100.55" y="88.77" width="13.24" height="109.23" fill="#9fc0dd"/><rect x="114.18" y="73.44" width="13.24" height="124.56" fill="#9fc0dd"/><rect x="127.82" y="69.00" width="13.24" height="129.00" fill="#9fc0dd"/><rect x="141.45" y="68.00" width="13.24" height="130.00" fill="#9fc0dd"/><rect x="155.09" y="70.61" width="13.24" height="127.39" fill="#9fc0dd"/><rect x="168.73" y="78.35" width="13.24" height="119.65" fill="#9fc0dd"/><rect x="182.36" y="89.81" width="13.24" height="108.19" fill="#9fc0dd"/><rect x="196.00" y="98.21" width="13.24" height="99.79" fill="#9fc0dd"/><rect x="209.64" y="106.53" width="13.24" height="91.47" fill="#9fc0dd"/><rect x="223.27" y="116.23" width="13.24" height="81.77" fill="#9fc0dd"/><rect x="236.91" y="128.04" width="13.24" height="69.96" fill="#9fc0dd"/><rect x="250.55" y="138.23" width="13.24" height="59.77" fill="#9fc0dd"/><rect x="264.18" y="143.61" width="13.24" height="54.39" fill="#9fc0dd"/><rect x="277.82" y="150.44" width="13.24" height="47.56" fill="#9fc0dd"/><rect x="291.45" y="155.97" width="13.24" height="42.03" fill="#9fc0dd"/><rect x="305.09" y="163.03" width="13.24" height="34.97" fill="#9fc0dd"/><rect x="318.73" y="168.29" width="13.24" height="29.71" fill="#9fc0dd"/><rect x="332.36" y="172.91" width="13.24" height="25.09" fill="#9fc0dd"/><rect x="346.00" y="175.37" width="13.24" height="22.63" fill="#9fc0dd"/><rect x="359.64" y="178.41" width="13.24" height="19.59" fill="#9fc0dd"/><rect x="373.27" y="182.43" width="13.24" height="15.57" fill="#dde5ec"/><rect x="386.91" y="184.15" width="13.24" height="13.85" fill="#dde5ec"/><rect x="400.55" y="186.91" width="13.24" height="11.09" fill="#dde5ec"/><rect x="414.18" y="189.02" width="13.24" height="8.98" fill="#dde5ec"/><rect x="427.82" y="190.16" width="13.24" height="7.84" fill="#dde5ec"/><rect x="441.45" y="191.51" width="13.24" height="6.49" fill="#dde5ec"/><rect x="455.09" y="192.29" width="13.24" height="5.71" fill="#dde5ec"/><rect x="468.73" y="193.63" width="13.24" height="4.37" fill="#dde5ec"/><rect x="482.36" y="194.27" width="13.24" height="3.73" fill="#dde5ec"/><line x1="89.6" y1="62" x2="89.6" y2="198" stroke="#455a64" stroke-width="1.2" stroke-dasharray="3 2"/><text x="89.6" y="58" font-size="8.5" text-anchor="middle" fill="#455a64">p5</text><line x1="177.9" y1="62" x2="177.9" y2="198" stroke="#b3413a" stroke-width="1.2"/><text x="177.9" y="58" font-size="8.5" text-anchor="middle" fill="#b3413a">point</text><line x1="376.5" y1="62" x2="376.5" y2="198" stroke="#455a64" stroke-width="1.2" stroke-dasharray="3 2"/><text x="376.5" y="58" font-size="8.5" text-anchor="middle" fill="#455a64">p95</text><line x1="46.0" y1="198.0" x2="496.0" y2="198.0" stroke="#90a4ae" stroke-width="1"/><line x1="46.0" y1="198.0" x2="46.0" y2="202.0" stroke="#90a4ae"/><text x="46.0" y="214.0" font-size="8.5" text-anchor="start" fill="#546e7a">$0.32</text><line x1="271.0" y1="198.0" x2="271.0" y2="202.0" stroke="#90a4ae"/><text x="271.0" y="214.0" font-size="8.5" text-anchor="middle" fill="#546e7a">$10.91</text><line x1="496.0" y1="198.0" x2="496.0" y2="202.0" stroke="#90a4ae"/><text x="496.0" y="214.0" font-size="8.5" text-anchor="end" fill="#546e7a">$21.50</text><text x="496" y="46" font-size="8.5" text-anchor="end" fill="#90a4ae">0.8% of samples run on to $41.40</text></svg>
