<svg xmlns="http://www.w3.org/2000/svg" viewBox="0 0 520 240" width="520" height="240" role="img" font-family="system-ui, sans-serif"><title>Distribution of cost per stored TB per month</title><rect width="520" height="240" fill="#ffffff"/><text x="16" y="20" font-size="11.5" fill="#263238">cost per stored TB per month — 100,000 samples</text><text x="16" y="34" font-size="10" fill="#546e7a">90% interval $305.33 to $2,108 · median $876.26</text><rect x="46.00" y="195.55" width="12.10" height="2.45" fill="#dde5ec"/><rect x="58.50" y="179.60" width="12.10" height="18.40" fill="#dde5ec"/><rect x="71.00" y="151.18" width="12.10" height="46.82" fill="#dde5ec"/><rect x="83.50" y="121.95" width="12.10" height="76.05" fill="#9fc0dd"/><rect x="96.00" y="96.55" width="12.10" height="101.45" fill="#9fc0dd"/><rect x="108.50" y="82.33" width="12.10" height="115.67" fill="#9fc0dd"/><rect x="121.00" y="74.18" width="12.10" height="123.82" fill="#9fc0dd"/><rect x="133.50" y="72.00" width="12.10" height="126.00" fill="#9fc0dd"/><rect x="146.00" y="75.64" width="12.10" height="122.36" fill="#9fc0dd"/><rect x="158.50" y="78.22" width="12.10" height="119.78" fill="#9fc0dd"/><rect x="171.00" y="88.10" width="12.10" height="109.90" fill="#9fc0dd"/><rect x="183.50" y="97.08" width="12.10" height="100.92" fill="#9fc0dd"/><rect x="196.00" y="105.03" width="12.10" height="92.97" fill="#9fc0dd"/><rect x="208.50" y="112.77" width="12.10" height="85.23" fill="#9fc0dd"/><rect x="221.00" y="121.02" width="12.10" height="76.98" fill="#9fc0dd"/><rect x="233.50" y="130.42" width="12.10" height="67.58" fill="#9fc0dd"/><rect x="246.00" y="138.48" width="12.10" height="59.52" fill="#9fc0dd"/><rect x="258.50" y="145.27" width="12.10" height="52.73" fill="#9fc0dd"/><rect x="271.00" y="150.94" width="12.10" height="47.06" fill="#9fc0dd"/><rect x="283.50" y="158.60" width="12.10" height="39.40" fill="#9fc0dd"/><rect x="296.00" y="163.60" width="12.10" height="34.40" fill="#9fc0dd"/><rect x="308.50" y="167.13" width="12.10" height="30.87" fill="#9fc0dd"/><rect x="321.00" y="170.78" width="12.10" height="27.22" fill="#9fc0dd"/><rect x="333.50" y="175.65" width="12.10" height="22.35" fill="#9fc0dd"/><rect x="346.00" y="178.61" width="12.10" height="19.39" fill="#9fc0dd"/><rect x="358.50" y="181.37" width="12.10" height="16.63" fill="#9fc0dd"/><rect x="371.00" y="183.70" width="12.10" height="14.30" fill="#dde5ec"/><rect x="383.50" y="185.34" width="12.10" height="12.66" fill="#dde5ec"/><rect x="396.00" y="188.07" width="12.10" height="9.93" fill="#dde5ec"/><rect x="408.50" y="188.98" width="12.10" height="9.02" fill="#dde5ec"/><rect x="421.00" y="190.68" width="12.10" height="7.32" fill="#dde5ec"/><rect x="433.50" y="191.67" width="12.10" height="6.33" fill="#dde5ec"/><rect x="446.00" y="192.92" width="12.10" height="5.08" fill="#dde5ec"/><rect x="458.50" y="193.43" width="12.10" height="4.57" fill="#dde5ec"/><rect x="471.00" y="193.59" width="12.10" height="4.41" fill="#dde5ec"/><rect x="483.50" y="194.47" width="12.10" height="3.53" fill="#dde5ec"/><line x1="87.8" y1="66" x2="87.8" y2="198" stroke="#455a64" stroke-width="1.2" stroke-dasharray="3 2"/><text x="87.8" y="62" font-size="10" text-anchor="middle" fill="#455a64">p5</text><line x1="172.1" y1="66" x2="172.1" y2="198" stroke="#b3413a" stroke-width="1.2"/><text x="172.1" y="62" font-size="10" text-anchor="middle" fill="#b3413a">point</text><line x1="372.4" y1="66" x2="372.4" y2="198" stroke="#455a64" stroke-width="1.2" stroke-dasharray="3 2"/><text x="372.4" y="62" font-size="10" text-anchor="middle" fill="#455a64">p95</text><line x1="46.0" y1="198.0" x2="496.0" y2="198.0" stroke="#90a4ae" stroke-width="1"/><line x1="46.0" y1="198.0" x2="46.0" y2="202.0" stroke="#90a4ae"/><text x="46.0" y="214.0" font-size="10" text-anchor="start" fill="#546e7a">$40.84</text><line x1="271.0" y1="198.0" x2="271.0" y2="202.0" stroke="#90a4ae"/><text x="271.0" y="214.0" font-size="10" text-anchor="middle" fill="#546e7a">$1,466</text><line x1="496.0" y1="198.0" x2="496.0" y2="202.0" stroke="#90a4ae"/><text x="496.0" y="214.0" font-size="10" text-anchor="end" fill="#546e7a">$2,891</text><text x="496" y="50" font-size="10" text-anchor="end" fill="#90a4ae">0.9% of samples run on to $5,108</text></svg>
