<svg xmlns="http://www.w3.org/2000/svg" viewBox="0 0 520 240" width="520" height="240" role="img" font-family="system-ui, sans-serif"><title>Distribution of cost per stored TB per month</title><rect width="520" height="240" fill="#ffffff"/><text x="16" y="20" font-size="11.5" fill="#263238">cost per stored TB per month — 100,000 samples</text><text x="16" y="34" font-size="9.5" fill="#546e7a">90% interval $305.33 to $2,108 · median $876.26</text><rect x="46.00" y="195.47" width="12.10" height="2.53" fill="#dde5ec"/><rect x="58.50" y="179.02" width="12.10" height="18.98" fill="#dde5ec"/><rect x="71.00" y="149.69" width="12.10" height="48.31" fill="#dde5ec"/><rect x="83.50" y="119.54" width="12.10" height="78.46" fill="#9fc0dd"/><rect x="96.00" y="93.32" width="12.10" height="104.68" fill="#9fc0dd"/><rect x="108.50" y="78.66" width="12.10" height="119.34" fill="#9fc0dd"/><rect x="121.00" y="70.25" width="12.10" height="127.75" fill="#9fc0dd"/><rect x="133.50" y="68.00" width="12.10" height="130.00" fill="#9fc0dd"/><rect x="146.00" y="71.76" width="12.10" height="126.24" fill="#9fc0dd"/><rect x="158.50" y="74.42" width="12.10" height="123.58" fill="#9fc0dd"/><rect x="171.00" y="84.61" width="12.10" height="113.39" fill="#9fc0dd"/><rect x="183.50" y="93.87" width="12.10" height="104.13" fill="#9fc0dd"/><rect x="196.00" y="102.08" width="12.10" height="95.92" fill="#9fc0dd"/><rect x="208.50" y="110.06" width="12.10" height="87.94" fill="#9fc0dd"/><rect x="221.00" y="118.57" width="12.10" height="79.43" fill="#9fc0dd"/><rect x="233.50" y="128.27" width="12.10" height="69.73" fill="#9fc0dd"/><rect x="246.00" y="136.59" width="12.10" height="61.41" fill="#9fc0dd"/><rect x="258.50" y="143.60" width="12.10" height="54.40" fill="#9fc0dd"/><rect x="271.00" y="149.45" width="12.10" height="48.55" fill="#9fc0dd"/><rect x="283.50" y="157.35" width="12.10" height="40.65" fill="#9fc0dd"/><rect x="296.00" y="162.50" width="12.10" height="35.50" fill="#9fc0dd"/><rect x="308.50" y="166.15" width="12.10" height="31.85" fill="#9fc0dd"/><rect x="321.00" y="169.92" width="12.10" height="28.08" fill="#9fc0dd"/><rect x="333.50" y="174.94" width="12.10" height="23.06" fill="#9fc0dd"/><rect x="346.00" y="178.00" width="12.10" height="20.00" fill="#9fc0dd"/><rect x="358.50" y="180.85" width="12.10" height="17.15" fill="#9fc0dd"/><rect x="371.00" y="183.24" width="12.10" height="14.76" fill="#dde5ec"/><rect x="383.50" y="184.94" width="12.10" height="13.06" fill="#dde5ec"/><rect x="396.00" y="187.75" width="12.10" height="10.25" fill="#dde5ec"/><rect x="408.50" y="188.70" width="12.10" height="9.30" fill="#dde5ec"/><rect x="421.00" y="190.45" width="12.10" height="7.55" fill="#dde5ec"/><rect x="433.50" y="191.47" width="12.10" height="6.53" fill="#dde5ec"/><rect x="446.00" y="192.75" width="12.10" height="5.25" fill="#dde5ec"/><rect x="458.50" y="193.28" width="12.10" height="4.72" fill="#dde5ec"/><rect x="471.00" y="193.45" width="12.10" height="4.55" fill="#dde5ec"/><rect x="483.50" y="194.36" width="12.10" height="3.64" fill="#dde5ec"/><line x1="87.8" y1="62" x2="87.8" y2="198" stroke="#455a64" stroke-width="1.2" stroke-dasharray="3 2"/><text x="87.8" y="58" font-size="8.5" text-anchor="middle" fill="#455a64">p5</text><line x1="172.1" y1="62" x2="172.1" y2="198" stroke="#b3413a" stroke-width="1.2"/><text x="172.1" y="58" font-size="8.5" text-anchor="middle" fill="#b3413a">point</text><line x1="372.4" y1="62" x2="372.4" y2="198" stroke="#455a64" stroke-width="1.2" stroke-dasharray="3 2"/><text x="372.4" y="58" font-size="8.5" text-anchor="middle" fill="#455a64">p95</text><line x1="46.0" y1="198.0" x2="496.0" y2="198.0" stroke="#90a4ae" stroke-width="1"/><line x1="46.0" y1="198.0" x2="46.0" y2="202.0" stroke="#90a4ae"/><text x="46.0" y="214.0" font-size="8.5" text-anchor="start" fill="#546e7a">$40.84</text><line x1="271.0" y1="198.0" x2="271.0" y2="202.0" stroke="#90a4ae"/><text x="271.0" y="214.0" font-size="8.5" text-anchor="middle" fill="#546e7a">$1,466</text><line x1="496.0" y1="198.0" x2="496.0" y2="202.0" stroke="#90a4ae"/><text x="496.0" y="214.0" font-size="8.5" text-anchor="end" fill="#546e7a">$2,891</text><text x="496" y="46" font-size="8.5" text-anchor="end" fill="#90a4ae">0.9% of samples run on to $5,108</text></svg>
