<svg xmlns="http://www.w3.org/2000/svg" viewBox="0 0 596 290" width="596" height="290" role="img" font-family="system-ui, sans-serif"><title>Tornado for stored, metrics and logs only</title><rect width="596" height="290" fill="#ffffff"/><text x="16" y="28" font-size="11" fill="#263238">stored, metrics and logs only (TB) — point estimate 278</text><line x1="287.2" y1="40" x2="287.2" y2="274" stroke="#455a64" stroke-width="1" stroke-dasharray="3 2"/><rect x="184.0" y="50.0" width="288.8" height="16.0" rx="2" fill="#dbe7f3" stroke="#4a7ba7" stroke-width="1"/><text x="176.0" y="62.0" font-size="9.5" text-anchor="end" fill="#263238">annual growth</text><text x="492.0" y="62.0" font-size="9" fill="#546e7a">345</text><rect x="206.9" y="74.0" width="277.1" height="16.0" rx="2" fill="#dbe7f3" stroke="#4a7ba7" stroke-width="1"/><text x="176.0" y="86.0" font-size="9.5" text-anchor="end" fill="#263238">accidental label values</text><text x="492.0" y="86.0" font-size="9" fill="#546e7a">331</text><rect x="223.9" y="98.0" width="159.3" height="16.0" rx="2" fill="#dbe7f3" stroke="#4a7ba7" stroke-width="1"/><text x="176.0" y="110.0" font-size="9.5" text-anchor="end" fill="#263238">label values endpoint</text><text x="492.0" y="110.0" font-size="9" fill="#546e7a">190</text><rect x="240.3" y="122.0" width="119.0" height="16.0" rx="2" fill="#dbe7f3" stroke="#4a7ba7" stroke-width="1"/><text x="176.0" y="134.0" font-size="9.5" text-anchor="end" fill="#263238">request rate</text><text x="492.0" y="134.0" font-size="9" fill="#546e7a">142</text><rect x="242.0" y="146.0" width="113.8" height="16.0" rx="2" fill="#dbe7f3" stroke="#4a7ba7" stroke-width="1"/><text x="176.0" y="158.0" font-size="9.5" text-anchor="end" fill="#263238">lines per request</text><text x="492.0" y="158.0" font-size="9" fill="#546e7a">136</text><rect x="252.1" y="170.0" width="86.9" height="16.0" rx="2" fill="#dbe7f3" stroke="#4a7ba7" stroke-width="1"/><text x="176.0" y="182.0" font-size="9.5" text-anchor="end" fill="#263238">label values status</text><text x="492.0" y="182.0" font-size="9" fill="#546e7a">104</text><rect x="287.2" y="194.0" width="1.5" height="16.0" rx="2" fill="#fde8c8" stroke="#c8791a" stroke-width="1"/><text x="176.0" y="206.0" font-size="9.5" text-anchor="end" fill="#263238">bytes per sample, compressed</text><text x="492.0" y="206.0" font-size="9" fill="#546e7a">0.0402</text><rect x="287.2" y="218.0" width="1.5" height="16.0" rx="2" fill="#fde8c8" stroke="#c8791a" stroke-width="1"/><text x="176.0" y="230.0" font-size="9.5" text-anchor="end" fill="#263238">bytes per log line, compressed</text><text x="492.0" y="230.0" font-size="9" fill="#546e7a">0.0401</text><rect x="287.2" y="242.0" width="1.5" height="16.0" rx="2" fill="#dbe7f3" stroke="#4a7ba7" stroke-width="1"/><text x="176.0" y="254.0" font-size="9.5" text-anchor="end" fill="#263238">queries per second</text><text x="492.0" y="254.0" font-size="9" fill="#546e7a">0</text></svg>
